<?xml version="1.0" ?><svg id="Layer_1" style="enable-background:new 0 0 24 24;" version="1.1" viewBox="0 0 24 24" xml:space="preserve" xmlns="http://www.w3.org/2000/svg" xmlns:xlink="http://www.w3.org/1999/xlink"><g id="XMLID_1716_"><path d="M21.5,10.999c0-5.336-4.399-9.645-9.769-9.496c-4.993,0.138-9.14,4.329-9.23,9.323   c-0.058,3.266,1.537,6.156,3.998,7.91v2.263c0,0.828,0.672,1.5,1.5,1.5h8c0.828,0,1.5-0.672,1.5-1.5v-2.263   C19.918,17.013,21.5,14.194,21.5,10.999z" id="XMLID_1715_" style="fill:#E4E5E6;"/><path d="M13.521,10.499c0.146-0.979,3.521-3.375,4-1c0.23,1.143-0.708,3-2,3   S13.352,11.634,13.521,10.499z" id="XMLID_1714_" style="fill:#5C6671;"/><path d="M10.479,10.517c-0.146-0.979-3.521-3.375-4-1c-0.23,1.143,0.708,3,2,3   S10.648,11.652,10.479,10.517z" id="XMLID_1713_" style="fill:#5C6671;"/><path d="M7.552,17.999   C5.969,16.097,5,13.668,5,10.999c0-3.935,2.073-7.377,5.179-9.321C5.804,2.528,2.5,6.376,2.5,10.999c0,3.196,1.58,6.02,4,7.741   v2.259c0,0.828,0.672,1.5,1.5,1.5h1v-2.497v-0.538C8.469,19.025,7.993,18.528,7.552,17.999z" id="XMLID_1719_" style="opacity:0.5;fill:#FFFFFF;enable-background:new    ;"/><path d="M11.5,1.999l-0.544-0.435   c-1.109,0.125-2.163,0.453-3.13,0.939L10,2.999l-0.5,2l3,1l-1.5-1.5L11.5,1.999z" id="XMLID_1722_" style="opacity:0.1;enable-background:new    ;"/><path d="M16.448,17.999c1.583-1.902,2.552-4.331,2.552-7   c0-3.935-2.073-7.377-5.179-9.321c4.375,0.85,7.679,4.698,7.679,9.321c0,3.196-1.58,6.02-4,7.741v2.259c0,0.828-0.672,1.5-1.5,1.5   h-1v-2.497v-0.538C15.531,19.025,16.007,18.528,16.448,17.999z" id="XMLID_1718_" style="opacity:0.1;enable-background:new    ;"/><g id="XMLID_1352_"><path d="M16.361,7.982c-1.382,0.035-3.195,1.508-3.335,2.443l0,0    c-0.097,0.646,0.075,1.261,0.481,1.733c0.461,0.534,1.194,0.84,2.013,0.84c0.626,0,1.234-0.323,1.715-0.91    c0.622-0.76,0.941-1.866,0.775-2.689C17.824,8.477,17.192,7.958,16.361,7.982z M16.462,11.456    c-0.166,0.203-0.509,0.543-0.941,0.543c-0.527,0-0.984-0.18-1.255-0.494c-0.218-0.252-0.304-0.574-0.251-0.933    c0.059-0.367,1.401-1.57,2.375-1.591c0.264,0.006,0.529,0.063,0.641,0.616C17.138,10.13,16.894,10.929,16.462,11.456z" id="XMLID_1407_" style="fill:#303C42;"/><path d="M10.974,10.443L10.974,10.443C10.834,9.508,9.021,8.034,7.639,8    C6.794,7.969,6.176,8.495,5.99,9.418c-0.166,0.823,0.153,1.929,0.775,2.689c0.48,0.586,1.089,0.91,1.715,0.91    c0.818,0,1.552-0.306,2.013-0.84C10.898,11.704,11.07,11.088,10.974,10.443z M9.734,11.523c-0.271,0.314-0.728,0.494-1.255,0.494    c-0.433,0-0.775-0.34-0.941-0.543c-0.432-0.527-0.676-1.326-0.568-1.858S7.325,9,7.582,9c0.01,0,0.019,0,0.028,0    c0.974,0.021,2.316,1.225,2.375,1.591C10.038,10.949,9.952,11.271,9.734,11.523z" id="XMLID_1410_" style="fill:#303C42;"/><path d="M13.344,14.636c-0.146-0.138-0.358-0.176-0.541-0.097    c-0.184,0.079-0.303,0.26-0.303,0.459v1.5c0,0.869,0.421,1.5,1,1.5s1-0.631,1-1.5C14.5,15.787,13.615,14.893,13.344,14.636z" id="XMLID_1411_" style="fill:#303C42;"/><path d="M11.197,14.54c-0.182-0.079-0.396-0.041-0.541,0.097    C10.385,14.894,9.5,15.788,9.5,16.5c0,0.869,0.421,1.5,1,1.5s1-0.631,1-1.5V15C11.5,14.799,11.381,14.619,11.197,14.54z" id="XMLID_1412_" style="fill:#303C42;"/><path d="M18.972,3.831c-1.952-1.899-4.545-2.898-7.254-2.828    C10.26,1.043,8.877,1.42,7.63,2.041C7.591,2.056,7.553,2.072,7.519,2.097c-3.198,1.642-5.45,4.956-5.517,8.721    C1.944,14.026,3.435,17.061,6,18.99V21c0,1.103,0.897,2,2,2h8c1.103,0,2-0.897,2-2v-2.01c2.51-1.887,4-4.855,4-7.99    C22,8.275,20.925,5.729,18.972,3.831z M17.21,18.329C17.078,18.423,17,18.575,17,18.736v2.263c0,0.551-0.448,1-1,1h-0.5v-1.5    c0-0.276-0.224-0.5-0.5-0.5s-0.5,0.224-0.5,0.5v1.5h-2v-1.5c0-0.276-0.224-0.5-0.5-0.5s-0.5,0.224-0.5,0.5v1.5h-2v-1.5    c0-0.276-0.224-0.5-0.5-0.5s-0.5,0.224-0.5,0.5v1.5H8c-0.552,0-1-0.449-1-1v-2.263c0-0.162-0.078-0.313-0.21-0.407    c-2.425-1.728-3.842-4.529-3.788-7.494C3.061,7.479,5.05,4.521,7.884,3.029l1.507,0.344L9.014,4.878    c-0.061,0.242,0.067,0.493,0.3,0.585l2.5,1C11.875,6.487,11.938,6.499,12,6.499c0.198,0,0.386-0.119,0.464-0.314    c0.103-0.256-0.021-0.547-0.278-0.65l-2.095-0.838l0.395-1.577c0.032-0.13,0.011-0.268-0.06-0.383    c-0.07-0.114-0.184-0.196-0.314-0.226l-0.613-0.14c0.719-0.214,1.47-0.347,2.247-0.369C11.832,2,11.918,1.998,12.004,1.998    c2.358,0,4.577,0.899,6.271,2.548c1.758,1.709,2.726,4,2.726,6.452C21,13.898,19.583,16.638,17.21,18.329z" id="XMLID_1415_" style="fill:#303C42;"/></g><linearGradient gradientUnits="userSpaceOnUse" id="XMLID_2_" x1="2.3749" x2="20.4759" y1="8.0287" y2="16.4693"><stop offset="0" style="stop-color:#FFFFFF;stop-opacity:0.2"/><stop offset="1" style="stop-color:#FFFFFF;stop-opacity:0"/></linearGradient><path d="M18.972,3.831c-1.952-1.899-4.545-2.898-7.254-2.828   c-5.264,0.146-9.622,4.548-9.716,9.814C1.944,14.025,3.435,17.06,6,18.989v2.01c0,1.103,0.897,2,2,2h8c1.103,0,2-0.897,2-2v-2.01   c2.51-1.887,4-4.855,4-7.99C22,8.275,20.925,5.729,18.972,3.831z" id="XMLID_1726_" style="fill:url(#XMLID_2_);"/></g></svg>